<?xml version="1.0" encoding="UTF-8"?>
<svg xmlns="http://www.w3.org/2000/svg" viewBox="0 0 1200 630" width="1200" height="630" role="img" aria-label="ClearMyChallan — check challan status and resolve from 60% of the original fine">
  <defs>
    <linearGradient id="bg" x1="0" y1="0" x2="1" y2="1">
      <stop offset="0%" stop-color="#FFFFFF"/>
      <stop offset="100%" stop-color="#F0F4FA"/>
    </linearGradient>
    <linearGradient id="brand" x1="0" y1="0" x2="1" y2="1">
      <stop offset="0%" stop-color="#2A4D8F"/>
      <stop offset="100%" stop-color="#182B4E"/>
    </linearGradient>
    <pattern id="grid" width="48" height="48" patternUnits="userSpaceOnUse">
      <path d="M 48 0 L 0 0 0 48" fill="none" stroke="rgba(42,77,143,0.05)" stroke-width="1"/>
    </pattern>
  </defs>

  <rect width="1200" height="630" fill="url(#bg)"/>
  <rect width="1200" height="630" fill="url(#grid)"/>

  <g transform="translate(80,80)">
    <rect width="56" height="56" rx="14" fill="url(#brand)"/>
    <path d="M16 30 L24 38 L40 22" stroke="#FFFFFF" stroke-width="4.5" fill="none" stroke-linecap="round" stroke-linejoin="round"/>
    <text x="76" y="38" font-family="Plus Jakarta Sans, Inter, Arial, sans-serif" font-size="28" font-weight="800" fill="#111827">ClearMy<tspan fill="#2A4D8F">Challan</tspan></text>
  </g>

  <text x="80" y="260" font-family="Plus Jakarta Sans, Inter, Arial, sans-serif" font-size="64" font-weight="800" fill="#111827">
    <tspan x="80" dy="0">Check challan status.</tspan>
    <tspan x="80" dy="76">Resolve from <tspan fill="#2A4D8F">60%.</tspan></tspan>
  </text>

  <text x="80" y="450" font-family="Inter, Arial, sans-serif" font-size="26" fill="#4B5563">
    Legal professional-assisted · Disposed in 20–25 days · 100% refund guarantee
  </text>

  <g font-family="Inter, Arial, sans-serif" font-size="20" font-weight="600">
    <g transform="translate(80,510)">
      <rect width="220" height="56" rx="28" fill="#FFFFFF" stroke="#C2D0E8"/>
      <circle cx="32" cy="28" r="8" fill="#16A34A"/>
      <text x="56" y="35" fill="#111827">Encrypted &amp; Secure</text>
    </g>
    <g transform="translate(320,510)">
      <rect width="280" height="56" rx="28" fill="#FFFFFF" stroke="#C2D0E8"/>
      <circle cx="32" cy="28" r="8" fill="#16A34A"/>
      <text x="56" y="35" fill="#111827">Legal Professional Assisted</text>
    </g>
    <g transform="translate(620,510)">
      <rect width="220" height="56" rx="28" fill="#FFFFFF" stroke="#C2D0E8"/>
      <circle cx="32" cy="28" r="8" fill="#16A34A"/>
      <text x="56" y="35" fill="#111827">Refund Guarantee</text>
    </g>
  </g>

  <g font-family="Inter, Arial, sans-serif" font-size="18" font-weight="600" fill="#2A4D8F">
    <rect x="800" y="160" width="320" height="280" rx="24" fill="#FFFFFF" stroke="#C2D0E8"/>
    <text x="824" y="200" font-size="14" letter-spacing="2" fill="#4B5563">CITIES COVERED</text>
    <g transform="translate(824,224)">
      <g transform="translate(0,0)"><rect width="92" height="34" rx="17" fill="#F0F4FA"/><text x="46" y="22" text-anchor="middle">Delhi</text></g>
      <g transform="translate(100,0)"><rect width="98" height="34" rx="17" fill="#F0F4FA"/><text x="49" y="22" text-anchor="middle">Noida</text></g>
      <g transform="translate(206,0)"><rect width="110" height="34" rx="17" fill="#F0F4FA"/><text x="55" y="22" text-anchor="middle">Gurugram</text></g>
      <g transform="translate(0,46)"><rect width="120" height="34" rx="17" fill="#F0F4FA"/><text x="60" y="22" text-anchor="middle">Ghaziabad</text></g>
      <g transform="translate(128,46)"><rect width="120" height="34" rx="17" fill="#F0F4FA"/><text x="60" y="22" text-anchor="middle">Faridabad</text></g>
      <g transform="translate(0,92)"><rect width="100" height="34" rx="17" fill="#F0F4FA"/><text x="50" y="22" text-anchor="middle">Lucknow</text></g>
      <g transform="translate(108,92)"><rect width="100" height="34" rx="17" fill="#F0F4FA"/><text x="50" y="22" text-anchor="middle">Kanpur</text></g>
      <g transform="translate(216,92)"><rect width="92" height="34" rx="17" fill="#F0F4FA"/><text x="46" y="22" text-anchor="middle">Agra</text></g>
      <g transform="translate(0,138)"><rect width="110" height="34" rx="17" fill="#F0F4FA"/><text x="55" y="22" text-anchor="middle">Mathura</text></g>
      <g transform="translate(118,138)"><rect width="106" height="34" rx="17" fill="#F0F4FA"/><text x="53" y="22" text-anchor="middle">Aligarh</text></g>
      <g transform="translate(232,138)"><rect width="84" height="34" rx="17" fill="#F0F4FA"/><text x="42" y="22" text-anchor="middle">Meerut</text></g>
    </g>
  </g>

  <text x="80" y="595" font-family="Inter, Arial, sans-serif" font-size="20" fill="#6B7280">clearmychallan.co.in</text>
</svg>
